<svg viewBox="0 0 96 96" xmlns="http://www.w3.org/2000/svg" xmlns:xlink="http://www.w3.org/1999/xlink" id="Icons_Donut" overflow="hidden"><path d="M86 35.4C86 35.4 86 35.4 86 35.4 86 35.4 86 35.4 86 35.4 82.6 25.2 75.5 17 65.9 12.2 56.4 7.4 45.5 6.7 35.4 10L35.4 10C25.3 13.4 17 20.5 12.3 30 7.4 39.6 6.7 50.5 10 60.6 13.2 70.3 20.4 78.7 29.6 83.5 35.3 86.5 41.6 88 47.9 88 52.2 88 56.4 87.3 60.6 85.9 75.6 80.9 86 67.9 87.7 52.5 88.4 46.9 87.8 41 86 35.4ZM69.6 39.8 73.8 35.6C74.6 34.8 75.8 34.8 76.6 35.6 77.4 36.4 77.4 37.6 76.6 38.4L72.4 42.6C72 43 71.5 43.2 71 43.2 70.5 43.2 70 43 69.6 42.6 68.8 41.9 68.8 40.6 69.6 39.8ZM56.6 19.5C57.4 18.7 58.7 18.8 59.4 19.6L63.4 23.8C64.2 24.6 64.1 25.9 63.3 26.6 62.9 27 62.4 27.1 61.9 27.1 61.4 27.1 60.8 26.9 60.4 26.5L56.4 22.3C55.8 21.6 55.8 20.3 56.6 19.5ZM48 36.8C49.7 36.8 51.4 37.2 53 38 55.7 39.3 57.7 41.6 58.6 44.5 59.5 47.4 59.3 50.4 58 53.1 56.7 55.8 54.4 57.8 51.5 58.7 45.6 60.7 39.3 57.5 37.3 51.6 36.4 48.8 36.6 45.7 37.9 43 39.2 40.3 41.5 38.3 44.4 37.4 45.6 37 46.8 36.8 48 36.8ZM33.6 23.8 37.8 19.6C38.6 18.8 39.8 18.8 40.6 19.6 41.4 20.4 41.4 21.6 40.6 22.4L36.4 26.6C36 27 35.5 27.2 35 27.2 34.5 27.2 34 27 33.6 26.6 32.8 25.9 32.8 24.6 33.6 23.8ZM19.6 38.4C18.8 37.6 18.8 36.4 19.6 35.6 20.4 34.8 21.6 34.8 22.4 35.6L26.6 39.8C27.4 40.6 27.4 41.8 26.6 42.6 26.2 43 25.7 43.2 25.2 43.2 24.7 43.2 24.2 43 23.8 42.6L19.6 38.4ZM22.7 62.2C22.2 62.2 21.7 62 21.3 61.6 20.5 60.8 20.5 59.6 21.3 58.8L25.5 54.6C26.3 53.8 27.5 53.8 28.3 54.6 29.1 55.4 29.1 56.6 28.3 57.4L24.1 61.6C23.8 62 23.3 62.2 22.7 62.2ZM80.2 64.1C75.9 72.7 68.5 79.1 59.4 82.1 59.4 82.1 59.4 82.1 59.4 82.1 50 85.3 40.1 84.5 31.5 80 30.4 79.4 29.4 78.8 28.4 78.2 31.6 78.1 34.1 75.7 34.1 70.1 34 64.7 46.9 64.4 47.1 70.1 47.6 82.1 72.8 75.4 72.1 56.1 71.9 49.3 80.1 49.2 80.1 53.1 80.1 56.3 81.5 57.5 82.9 57.4 82.2 59.6 81.3 61.9 80.2 64.1Z" fill="#FFFFFF"/></svg>